<svg id="Web-based_provisioning" data-name="Web-based provisioning" xmlns="http://www.w3.org/2000/svg" xmlns:xlink="http://www.w3.org/1999/xlink" viewBox="0 0 1749.35 493.79"><defs><style>.cls-1{fill:#d6d6d6;}.cls-1,.cls-2,.cls-4{stroke:#969696;}.cls-1,.cls-10,.cls-2,.cls-4,.cls-5,.cls-6{stroke-miterlimit:10;stroke-width:3px;}.cls-2{fill:#e2e2e2;}.cls-3{fill:url(#linear-gradient);}.cls-4{fill:#ededed;}.cls-5,.cls-7{fill:#e6e6e6;}.cls-10,.cls-5,.cls-6{stroke:#b3b3b3;}.cls-10,.cls-6{fill:none;}.cls-8{fill:#b3b3b3;}.cls-9{opacity:0.24;fill:url(#radial-gradient);}.cls-10{stroke-linecap:round;}</style><linearGradient id="linear-gradient" x1="1269.1" y1="640.01" x2="1269.1" y2="702.8" gradientUnits="userSpaceOnUse"><stop offset="0" stop-color="#fff" stop-opacity="0"/><stop offset="0.81" stop-color="#b8b8b8"/></linearGradient><radialGradient id="radial-gradient" cx="235.36" cy="235.36" r="202.7" gradientUnits="userSpaceOnUse"><stop offset="0" stop-color="#fffefe"/><stop offset="0.54" stop-color="#fffddd" stop-opacity="0.45"/><stop offset="1" stop-color="#fffdc2" stop-opacity="0"/></radialGradient></defs><path class="cls-1" d="M1379.94,704.18c-27.23-4.82-66.8-7.86-110.84-7.86s-83.61,3-110.85,7.86h-37.88v15.73c0,13,66.59,23.59,148.73,23.59s148.72-10.56,148.72-23.59V704.18Z" transform="translate(-57 -251.21)"/><ellipse class="cls-1" cx="1212.1" cy="452.97" rx="148.73" ry="23.59"/><path class="cls-2" d="M1318.33,685.38c-17.1,17.09-81.71,16.75-98.47,0l10.94-39.66h76.59Z" transform="translate(-57 -251.21)"/><path class="cls-3" d="M1318,684.2c-19.33,17.74-81.57,15.68-97.71,0l11.42-40h75.25Z" transform="translate(-57 -251.21)"/><rect class="cls-1" x="908.58" y="23.65" width="607.04" height="382.03"/><rect class="cls-4" x="927.3" y="40.99" width="569.6" height="347.37"/><path class="cls-5" d="M1618.08,105h77a52.8,52.8,0,0,1,52.8,52.8v334.5a0,0,0,0,1,0,0H1565.28a0,0,0,0,1,0,0V157.79A52.8,52.8,0,0,1,1618.08,105Z"/><rect class="cls-5" x="1578.87" y="157.15" width="155.39" height="18.46"/><rect class="cls-5" x="1578.87" y="187.02" width="155.39" height="18.46"/><rect class="cls-5" x="1578.87" y="216.89" width="155.39" height="18.46"/><rect class="cls-5" x="1770.95" y="536.18" width="6.15" height="14.54" transform="translate(2260.47 -1481.79) rotate(90)"/><rect class="cls-5" x="1751.66" y="536.18" width="6.15" height="14.54" transform="translate(2241.18 -1462.5) rotate(90)"/><rect class="cls-5" x="1732.37" y="536.18" width="6.15" height="14.54" transform="translate(2221.89 -1443.21) rotate(90)"/><circle class="cls-5" cx="1639.23" cy="292.23" r="2.73"/><circle class="cls-5" cx="1629.02" cy="292.23" r="2.73"/><circle class="cls-5" cx="1656.56" cy="292.23" r="7.27"/><polyline class="cls-6" points="1747.85 267.2 1715.03 267.2 1703.75 255.92 1659.77 255.92 1655.99 255.92 1609.38 255.92 1598.1 267.2 1565.28 267.2"/><rect class="cls-5" x="1579.51" y="353.63" width="154.11" height="5.25"/><rect class="cls-5" x="1579.51" y="358.88" width="154.11" height="5.25"/><rect class="cls-5" x="1579.51" y="364.14" width="154.11" height="5.25"/><rect class="cls-5" x="1579.51" y="369.39" width="154.11" height="5.25"/><rect class="cls-5" x="1579.51" y="374.64" width="154.11" height="5.25"/><rect class="cls-5" x="1579.51" y="379.89" width="154.11" height="5.25"/><rect class="cls-5" x="1579.51" y="385.14" width="154.11" height="5.25"/><rect class="cls-5" x="1579.51" y="390.39" width="154.11" height="5.25"/><rect class="cls-5" x="1579.51" y="395.64" width="154.11" height="5.25"/><rect class="cls-5" x="1579.51" y="400.89" width="154.11" height="5.25"/><rect class="cls-5" x="1579.51" y="406.14" width="154.11" height="5.25"/><rect class="cls-5" x="1579.51" y="411.4" width="154.11" height="5.25"/><rect class="cls-5" x="1579.51" y="416.65" width="154.11" height="5.25"/><rect class="cls-5" x="1579.51" y="421.9" width="154.11" height="5.25"/><rect class="cls-5" x="1579.51" y="427.15" width="154.11" height="5.25"/><rect class="cls-5" x="1579.51" y="432.4" width="154.11" height="5.25"/><rect class="cls-5" x="1579.51" y="437.65" width="154.11" height="5.25"/><rect class="cls-5" x="1579.51" y="442.9" width="154.11" height="5.25"/><rect class="cls-5" x="1579.51" y="448.15" width="154.11" height="5.25"/><rect class="cls-5" x="1579.51" y="453.4" width="154.11" height="5.25"/><rect class="cls-5" x="1579.51" y="458.66" width="154.11" height="5.25"/><rect class="cls-5" x="1579.51" y="463.91" width="154.11" height="5.25"/><rect class="cls-5" x="1579.51" y="469.16" width="154.11" height="5.25"/><rect class="cls-5" x="1579.51" y="474.41" width="154.11" height="5.25"/><polygon class="cls-7" points="1581.06 347.92 1581.06 363.78 1591.5 374.23 1591.5 390.04 1581.03 400.51 1581.03 416.29 1591.82 427.09 1591.82 442.55 1581.19 453.18 1581.19 468.81 1591.76 479.37 1591.76 488.95 1571.61 488.95 1571.61 347.92 1581.06 347.92"/><polygon class="cls-7" points="1732.23 348.27 1732.23 364.13 1721.79 374.58 1721.79 390.39 1732.26 400.86 1732.26 416.65 1721.47 427.44 1721.47 442.9 1732.1 453.54 1732.1 469.16 1721.54 479.73 1721.54 489.3 1741.68 489.3 1741.68 348.27 1732.23 348.27"/><polygon class="cls-7" points="1732.85 354.79 1697.81 354.79 1692.57 360.03 1657.68 360.03 1651.57 360.04 1620.75 360.04 1615.52 354.8 1577.59 354.8 1577.59 349.07 1732.85 349.07 1732.85 354.79"/><polygon class="cls-8" points="806.95 257.97 677.58 193.29 677.58 235.58 568.33 235.58 568.33 280.36 677.58 280.36 677.58 322.66 806.95 257.97"/><circle class="cls-9" cx="235.36" cy="235.36" r="202.7"/><path class="cls-6" d="M526.21,486.57a233.84,233.84,0,1,1-84.4-179.88A233.38,233.38,0,0,1,526.21,486.57Z" transform="translate(-57 -251.21)"/><line class="cls-6" x1="235.36" y1="1.5" x2="235.36" y2="469.21"/><line class="cls-6" x1="469.21" y1="235.36" x2="1.5" y2="235.36"/><ellipse class="cls-6" cx="235.36" cy="235.36" rx="132.01" ry="233.86"/><path class="cls-6" d="M441.81,306.69a183.27,183.27,0,0,1-43,43.11,181.41,181.41,0,0,1-105.65,33.73h-.77a181.34,181.34,0,0,1-106.07-34.59,183.27,183.27,0,0,1-42.41-43.06,233.89,233.89,0,0,1,297.93.81Z" transform="translate(-57 -251.21)"/><path class="cls-6" d="M441.32,666.85a233.9,233.9,0,0,1-297.93,0,183.57,183.57,0,0,1,42.72-43.09,182.3,182.3,0,0,1,212.49,0A183.57,183.57,0,0,1,441.32,666.85Z" transform="translate(-57 -251.21)"/><line class="cls-10" x1="1656.56" y1="289.16" x2="1656.56" y2="294.5"/></svg>